<svg width="200" height="50" viewBox="0 0 200 50" fill="none" xmlns="http://www.w3.org/2000/svg">
<mask id="path-1-inside-1_7_328" fill="white">
<path d="M0 0H200V50H0V0Z"/>
</mask>
<path d="M200 49.5H0V50.5H200V49.5Z" fill="black" fill-opacity="0.1" mask="url(#path-1-inside-1_7_328)"/>
<path d="M42.6275 20.7152H38.5824C38.7899 20.5796 38.9867 20.4267 39.1706 20.2581C39.448 20.0009 39.6714 19.6869 39.8269 19.3358C39.9824 18.9847 40.0667 18.604 40.0745 18.2174C40.0865 17.7922 40.015 17.3689 39.8644 16.9734C39.7137 16.578 39.4871 16.2187 39.1983 15.9176C38.9095 15.6165 38.5648 15.3799 38.1851 15.2224C37.8054 15.0648 37.3988 14.9896 36.9902 15.0013C36.6188 15.0094 36.253 15.0971 35.9156 15.259C35.5782 15.4208 35.2765 15.6534 35.0294 15.9421C34.5753 16.4998 34.2261 17.1416 34 17.8338C33.7744 17.1421 33.4259 16.5007 32.9725 15.9431C32.7253 15.654 32.4233 15.4211 32.0856 15.259C31.7479 15.097 31.3816 15.0092 31.0098 15.0013C30.601 14.989 30.194 15.0638 29.814 15.2211C29.4339 15.3783 29.0887 15.6147 28.7995 15.9157C28.5103 16.2168 28.2833 16.5761 28.1323 16.9717C27.9814 17.3674 27.9096 17.7909 27.9216 18.2164C27.9293 18.6029 28.0136 18.9837 28.1692 19.3348C28.3247 19.6859 28.5481 19.9999 28.8255 20.2571C29.0092 20.4259 29.206 20.5788 29.4137 20.7142H25.3725C25.1922 20.7142 25.0137 20.7512 24.8471 20.823C24.6805 20.8949 24.5291 21.0002 24.4017 21.1329C24.2742 21.2657 24.1731 21.4233 24.1042 21.5967C24.0353 21.7702 23.9999 21.956 24 22.1437V25.4088C24 25.7876 24.1446 26.151 24.402 26.4189C24.6594 26.6868 25.0085 26.8373 25.3725 26.8373H25.5686V33.5715C25.5686 33.9504 25.7132 34.3137 25.9706 34.5816C26.228 34.8495 26.5772 35 26.9412 35H41.0588C41.4228 35 41.772 34.8495 42.0294 34.5816C42.2868 34.3137 42.4314 33.9504 42.4314 33.5715V26.8373H42.6275C42.9915 26.8373 43.3406 26.6868 43.598 26.4189C43.8554 26.151 44 25.7876 44 25.4088V22.1437C44 21.7648 43.8554 21.4015 43.598 21.1336C43.3406 20.8657 42.9915 20.7152 42.6275 20.7152ZM34.7618 19.5928C34.9824 18.3562 35.3784 17.3736 35.9078 16.7512C36.0495 16.5885 36.2219 16.4578 36.4141 16.3674C36.6064 16.277 36.8145 16.2288 37.0255 16.2257H37.0794C37.3233 16.2257 37.5647 16.2767 37.7894 16.3756C38.014 16.4744 38.2174 16.6192 38.3873 16.8013C38.5572 16.9834 38.6903 17.1991 38.7787 17.4357C38.8671 17.6723 38.909 17.9249 38.902 18.1786C38.8986 18.3984 38.8518 18.6152 38.7644 18.8153C38.6771 19.0154 38.551 19.1947 38.3941 19.3418C37.3431 20.3071 35.5608 20.5958 34.6216 20.6795C34.6461 20.3846 34.6863 20.0091 34.7618 19.5928ZM29.6324 16.7818C29.9745 16.427 30.4375 16.2271 30.9206 16.2257H30.9745C31.1857 16.2292 31.3939 16.2779 31.5862 16.3688C31.7785 16.4598 31.9507 16.591 32.0922 16.7542C33.0196 17.8481 33.2971 19.703 33.3775 20.6805C33.0941 20.655 32.7333 20.6111 32.3373 20.5346C31.149 20.3071 30.2049 19.8928 29.6069 19.3408C29.4497 19.194 29.3234 19.015 29.2359 18.815C29.1483 18.615 29.1014 18.3984 29.098 18.1786C29.0913 17.9203 29.1352 17.6631 29.227 17.423C29.3189 17.1828 29.4568 16.9647 29.6324 16.7818ZM25.1765 25.4088V22.1437C25.1765 22.0896 25.1971 22.0377 25.2339 21.9994C25.2707 21.9611 25.3205 21.9396 25.3725 21.9396H33.4118V25.6129H25.3725C25.3205 25.6129 25.2707 25.5914 25.2339 25.5531C25.1971 25.5148 25.1765 25.4629 25.1765 25.4088ZM26.7451 33.5715V26.8373H33.4118V33.7756H26.9412C26.8892 33.7756 26.8393 33.7541 26.8025 33.7158C26.7658 33.6775 26.7451 33.6256 26.7451 33.5715ZM41.2549 33.5715C41.2549 33.6256 41.2342 33.6775 41.1975 33.7158C41.1607 33.7541 41.1108 33.7756 41.0588 33.7756H34.5882V26.8373H41.2549V33.5715ZM42.8235 25.4088C42.8235 25.4629 42.8029 25.5148 42.7661 25.5531C42.7293 25.5914 42.6795 25.6129 42.6275 25.6129H34.5882V21.9396H42.6275C42.6795 21.9396 42.7293 21.9611 42.7661 21.9994C42.8029 22.0377 42.8235 22.0896 42.8235 22.1437V25.4088Z" fill="black"/>
<path d="M56.304 18.536V20.008C56.304 22.216 54.896 24.168 52.72 24.968L53.424 26.04C55.84 25.096 57.408 22.792 57.408 20.008V18.536H56.304ZM56.544 18.536V20.104C56.544 22.616 58.128 24.76 60.448 25.624L61.152 24.584C59.072 23.864 57.632 22.056 57.632 20.104V18.536H56.544ZM62.688 17.784V26.552H64.016V17.784H62.688ZM63.648 21.512V22.632H66.16V21.512H63.648ZM59.408 26.952C56.448 26.952 54.656 27.928 54.656 29.592C54.656 31.256 56.448 32.216 59.408 32.216C62.368 32.216 64.16 31.256 64.16 29.592C64.16 27.928 62.368 26.952 59.408 26.952ZM59.408 28.008C61.552 28.008 62.864 28.584 62.864 29.592C62.864 30.6 61.552 31.176 59.408 31.176C57.264 31.176 55.952 30.6 55.952 29.592C55.952 28.584 57.264 28.008 59.408 28.008ZM73.3908 25.464V27.96H74.7028V25.464H73.3908ZM67.5028 24.76V25.848H80.5748V24.76H67.5028ZM68.7188 18.232V19.32H79.3428V18.232H68.7188ZM68.7828 22.344V23.432H79.2788V22.344H68.7828ZM70.9108 18.712V23.048H72.2388V18.712H70.9108ZM75.8388 18.712V23.048H77.1508V18.712H75.8388ZM69.1028 27.528V32.056H78.9748V27.528H69.1028ZM77.6788 28.584V30.984H70.4148V28.584H77.6788ZM92.7655 17.768V32.264H94.0935V17.768H92.7655ZM83.0695 27.672V28.776H84.2695C86.7495 28.776 88.9255 28.68 91.5495 28.248L91.4055 27.16C88.8455 27.576 86.6855 27.672 84.2695 27.672H83.0695ZM83.0375 19.128V20.216H88.3815V23.208H83.0695V28.088H84.3975V24.296H89.7255V19.128H83.0375ZM102.748 18.776V19.88C102.748 22.344 100.028 24.552 97.4843 25.032L98.0763 26.136C100.972 25.48 103.9 23.032 103.9 19.88V18.776H102.748ZM102.988 18.776V19.88C102.988 23.048 105.932 25.48 108.812 26.136L109.404 25.032C106.876 24.552 104.14 22.36 104.14 19.88V18.776H102.988ZM96.9563 29.208V30.296H110.06V29.208H96.9563ZM113.355 25.576V26.648H123.291V25.576H113.355ZM111.675 29.288V30.392H124.779V29.288H111.675ZM113.355 19.016V25.912H114.699V20.104H123.131V19.016H113.355ZM114.267 22.248V23.304H122.827V22.248H114.267ZM141.966 17.784V32.248H143.246V17.784H141.966ZM137.198 23.288V24.456H139.598V23.288H137.198ZM139.166 18.136V31.496H140.43V18.136H139.166ZM131.022 19.608V20.696H137.63V19.608H131.022ZM130.894 28.696C132.75 28.696 135.774 28.632 138.03 28.2L137.934 27.224C135.742 27.512 132.606 27.576 130.734 27.576L130.894 28.696ZM132.206 20.312V27.88H133.422V20.312H132.206ZM135.214 20.312V27.88H136.43V20.312H135.214ZM156.109 17.768V32.264H157.437V17.768H156.109ZM149.805 18.888C147.677 18.888 146.141 20.856 146.141 23.928C146.141 27.016 147.677 28.984 149.805 28.984C151.949 28.984 153.485 27.016 153.485 23.928C153.485 20.856 151.949 18.888 149.805 18.888ZM149.805 20.088C151.229 20.088 152.205 21.592 152.205 23.928C152.205 26.28 151.229 27.816 149.805 27.816C148.397 27.816 147.405 26.28 147.405 23.928C147.405 21.592 148.397 20.088 149.805 20.088ZM164.155 19.848V22.2C164.155 24.696 162.411 27.416 160.315 28.408L161.083 29.464C163.387 28.328 165.227 25.256 165.227 22.2V19.848H164.155ZM164.411 19.848V22.2C164.411 25.208 166.267 28.024 168.603 29.112L169.355 28.056C167.227 27.144 165.483 24.648 165.483 22.2V19.848H164.411ZM160.795 19.256V20.376H168.875V19.256H160.795ZM170.827 17.784V32.248H172.155V17.784H170.827Z" fill="black"/>
</svg>
