<svg width="200" height="50" viewBox="0 0 200 50" fill="none" xmlns="http://www.w3.org/2000/svg">
<mask id="path-1-inside-1_7_344" fill="white">
<path d="M0 0H200V50H0V0Z"/>
</mask>
<path d="M200 49.5H0V50.5H200V49.5Z" fill="black" fill-opacity="0.1" mask="url(#path-1-inside-1_7_344)"/>
<path d="M43.9345 22.5337C43.8594 22.2862 43.7147 22.0676 43.519 21.9062C43.3234 21.7447 43.0857 21.6478 42.8365 21.6277L37.432 21.1427C37.3993 21.1394 37.3681 21.1269 37.3417 21.1066C37.3153 21.0863 37.2946 21.059 37.282 21.0276L35.1705 15.8034C35.0727 15.565 34.9096 15.3618 34.7015 15.219C34.4933 15.0762 34.2493 15 33.9998 15C33.7503 15 33.5063 15.0762 33.2982 15.219C33.09 15.3618 32.9269 15.565 32.8291 15.8034L30.7177 21.0276C30.705 21.059 30.6844 21.0863 30.658 21.1066C30.6316 21.1269 30.6004 21.1394 30.5677 21.1427L25.1632 21.6277C24.914 21.6478 24.6763 21.7447 24.4806 21.9062C24.2849 22.0676 24.1403 22.2862 24.0652 22.5337C23.9857 22.7815 23.9787 23.0483 24.0452 23.3002C24.1117 23.5522 24.2487 23.778 24.4388 23.9492L28.539 27.6626C28.5641 27.6857 28.5827 27.7154 28.5929 27.7486C28.6032 27.7819 28.6046 27.8173 28.5971 27.8513L27.3646 33.3727C27.3072 33.627 27.3236 33.8931 27.4117 34.1377C27.4999 34.3822 27.6559 34.5942 27.86 34.7467C28.0609 34.9007 28.3017 34.9885 28.5512 34.9989C28.8007 35.0094 29.0475 34.9419 29.2597 34.8052L33.9053 31.8798C33.9326 31.8623 33.9641 31.853 33.9962 31.853C34.0283 31.853 34.0598 31.8623 34.0871 31.8798L38.7326 34.8052C38.9471 34.9415 39.1956 35.0088 39.4468 34.9986C39.698 34.9885 39.9407 34.9012 40.1442 34.748C40.3477 34.5947 40.5029 34.3823 40.5903 34.1376C40.6777 33.8928 40.6932 33.6267 40.635 33.3727L39.4062 27.8494C39.3987 27.8154 39.4001 27.78 39.4103 27.7468C39.4206 27.7136 39.4392 27.6838 39.4643 27.6607L43.5645 23.9473C43.7536 23.7758 43.8897 23.5501 43.9555 23.2986C44.0213 23.047 44.014 22.7809 43.9345 22.5337ZM42.8437 23.0923L38.7435 26.8057C38.5688 26.9635 38.4389 27.1679 38.3678 27.3967C38.2967 27.6255 38.2871 27.8701 38.34 28.1042L39.5689 33.6275C39.5779 33.6647 39.5759 33.7038 39.5631 33.7397C39.5503 33.7756 39.5272 33.8066 39.4971 33.8285C39.4697 33.8513 39.4361 33.8643 39.4011 33.8659C39.3662 33.8674 39.3316 33.8573 39.3025 33.837L34.657 30.9116C34.4589 30.7866 34.2316 30.7206 33.9998 30.7206C33.7681 30.7206 33.5407 30.7866 33.3427 30.9116L28.6971 33.837C28.668 33.8573 28.6335 33.8674 28.5985 33.8659C28.5635 33.8643 28.5299 33.8513 28.5026 33.8285C28.4724 33.8066 28.4494 33.7756 28.4365 33.7397C28.4237 33.7038 28.4217 33.6647 28.4308 33.6275L29.6597 28.1042C29.7126 27.8701 29.703 27.6255 29.6318 27.3967C29.5607 27.1679 29.4308 26.9635 29.2561 26.8057L25.1559 23.0923C25.1279 23.0676 25.1077 23.0346 25.0982 22.9977C25.0886 22.9607 25.09 22.9217 25.1023 22.8857C25.1115 22.8498 25.1314 22.8178 25.1591 22.7944C25.1869 22.771 25.2211 22.7574 25.2568 22.7554L30.6622 22.2704C30.8936 22.2499 31.1152 22.1641 31.303 22.0222C31.4908 21.8803 31.6376 21.6878 31.7275 21.4654L33.8389 16.2412C33.8536 16.2088 33.8769 16.1814 33.906 16.1622C33.9352 16.143 33.969 16.1328 34.0035 16.1328C34.038 16.1328 34.0718 16.143 34.1009 16.1622C34.13 16.1814 34.1533 16.2088 34.168 16.2412L36.2722 21.4654C36.3618 21.6872 36.508 21.8794 36.6951 22.0213C36.8822 22.1631 37.103 22.2493 37.3338 22.2704L42.7392 22.7554C42.7749 22.7574 42.8091 22.771 42.8369 22.7944C42.8647 22.8178 42.8846 22.8498 42.8937 22.8857C42.9064 22.9213 42.9084 22.9601 42.8995 22.997C42.8906 23.0339 42.8712 23.0671 42.8437 23.0923Z" fill="black"/>
<path d="M58.656 25.576V28.072H59.968V25.576H58.656ZM52.784 24.856V25.944H65.856V24.856H52.784ZM54.24 27.624V28.696H62.912V32.248H64.24V27.624H54.24ZM54.528 18.12V23.528H64.16V18.12H62.832V19.752H55.84V18.12H54.528ZM55.84 20.792H62.832V22.472H55.84V20.792ZM68.0788 19.224V28.584H74.7188V19.224H68.0788ZM73.4228 20.296V27.512H69.3748V20.296H73.4228ZM77.2948 17.784V32.248H78.6388V17.784H77.2948ZM78.3188 23.56V24.68H81.0068V23.56H78.3188ZM83.7895 19.256V20.344H92.9735V19.256H83.7895ZM82.2375 29.128V30.248H95.3095V29.128H82.2375ZM92.3975 19.256V21.032C92.3975 23.112 92.3975 25.176 91.7735 27.96L93.0855 28.088C93.6935 25.128 93.6935 23.16 93.6935 21.032V19.256H92.3975ZM92.7335 23.256L83.4055 23.64L83.5975 24.744L92.7335 24.248V23.256ZM112.528 17.784V32.248H113.808V17.784H112.528ZM107.76 23.288V24.456H110.16V23.288H107.76ZM109.728 18.136V31.496H110.992V18.136H109.728ZM101.584 19.608V20.696H108.192V19.608H101.584ZM101.456 28.696C103.312 28.696 106.336 28.632 108.592 28.2L108.496 27.224C106.304 27.512 103.168 27.576 101.296 27.576L101.456 28.696ZM102.768 20.312V27.88H103.984V20.312H102.768ZM105.776 20.312V27.88H106.992V20.312H105.776ZM126.671 17.768V32.264H127.999V17.768H126.671ZM120.367 18.888C118.239 18.888 116.703 20.856 116.703 23.928C116.703 27.016 118.239 28.984 120.367 28.984C122.511 28.984 124.047 27.016 124.047 23.928C124.047 20.856 122.511 18.888 120.367 18.888ZM120.367 20.088C121.791 20.088 122.767 21.592 122.767 23.928C122.767 26.28 121.791 27.816 120.367 27.816C118.959 27.816 117.967 26.28 117.967 23.928C117.967 21.592 118.959 20.088 120.367 20.088ZM134.718 19.848V22.2C134.718 24.696 132.974 27.416 130.878 28.408L131.646 29.464C133.95 28.328 135.79 25.256 135.79 22.2V19.848H134.718ZM134.974 19.848V22.2C134.974 25.208 136.83 28.024 139.166 29.112L139.918 28.056C137.79 27.144 136.046 24.648 136.046 22.2V19.848H134.974ZM131.358 19.256V20.376H139.438V19.256H131.358ZM141.39 17.784V32.248H142.718V17.784H141.39Z" fill="black"/>
</svg>
