<svg width="225" height="33" viewBox="0 0 225 33" fill="none" xmlns="http://www.w3.org/2000/svg">
<path d="M21.5568 10.0602H16.5795C16.4886 9.41624 16.303 8.84427 16.0227 8.34427C15.7424 7.83669 15.3826 7.40488 14.9432 7.04882C14.5038 6.69276 13.9962 6.42003 13.4205 6.23063C12.8523 6.04124 12.2348 5.94654 11.5682 5.94654C10.3636 5.94654 9.31439 6.24579 8.42045 6.84427C7.52652 7.43518 6.83333 8.29882 6.34091 9.43518C5.84849 10.564 5.60227 11.9352 5.60227 13.5488C5.60227 15.2079 5.84849 16.6018 6.34091 17.7306C6.84091 18.8594 7.53788 19.7117 8.43182 20.2875C9.32576 20.8632 10.3598 21.1511 11.5341 21.1511C12.1932 21.1511 12.803 21.064 13.3636 20.8897C13.9318 20.7155 14.4356 20.4617 14.875 20.1284C15.3144 19.7875 15.678 19.3746 15.9659 18.8897C16.2614 18.4049 16.4659 17.8518 16.5795 17.2306L21.5568 17.2534C21.428 18.3215 21.1061 19.3518 20.5909 20.3443C20.0833 21.3291 19.3977 22.2117 18.5341 22.992C17.678 23.7647 16.6553 24.3784 15.4659 24.8329C14.2841 25.2799 12.947 25.5034 11.4545 25.5034C9.37879 25.5034 7.52273 25.0337 5.88636 24.0943C4.25758 23.1549 2.9697 21.795 2.02273 20.0147C1.08333 18.2344 0.613636 16.0791 0.613636 13.5488C0.613636 11.0109 1.09091 8.85185 2.04545 7.07154C3 5.29124 4.29545 3.93518 5.93182 3.00336C7.56818 2.06397 9.40909 1.59427 11.4545 1.59427C12.803 1.59427 14.053 1.78366 15.2045 2.16245C16.3636 2.54124 17.3902 3.09427 18.2841 3.82154C19.178 4.54124 19.9053 5.42382 20.4659 6.46927C21.0341 7.51473 21.3977 8.7117 21.5568 10.0602ZM46.4716 13.5488C46.4716 16.0867 45.9905 18.2458 45.0284 20.0261C44.0739 21.8064 42.7708 23.1662 41.1193 24.1056C39.4754 25.0375 37.6269 25.5034 35.5739 25.5034C33.5057 25.5034 31.6496 25.0337 30.0057 24.0943C28.3617 23.1549 27.0625 21.795 26.108 20.0147C25.1534 18.2344 24.6761 16.0791 24.6761 13.5488C24.6761 11.0109 25.1534 8.85185 26.108 7.07154C27.0625 5.29124 28.3617 3.93518 30.0057 3.00336C31.6496 2.06397 33.5057 1.59427 35.5739 1.59427C37.6269 1.59427 39.4754 2.06397 41.1193 3.00336C42.7708 3.93518 44.0739 5.29124 45.0284 7.07154C45.9905 8.85185 46.4716 11.0109 46.4716 13.5488ZM41.483 13.5488C41.483 11.9049 41.2367 10.5185 40.7443 9.38973C40.2595 8.26094 39.5739 7.40488 38.6875 6.82154C37.8011 6.23821 36.7633 5.94654 35.5739 5.94654C34.3845 5.94654 33.3466 6.23821 32.4602 6.82154C31.5739 7.40488 30.8845 8.26094 30.392 9.38973C29.9072 10.5185 29.6648 11.9049 29.6648 13.5488C29.6648 15.1928 29.9072 16.5791 30.392 17.7079C30.8845 18.8367 31.5739 19.6928 32.4602 20.2761C33.3466 20.8594 34.3845 21.1511 35.5739 21.1511C36.7633 21.1511 37.8011 20.8594 38.6875 20.2761C39.5739 19.6928 40.2595 18.8367 40.7443 17.7079C41.2367 16.5791 41.483 15.1928 41.483 13.5488ZM49.8665 25.1852V22.2647L61.4801 5.96927H49.8438V1.91245H67.6619V4.83291L56.0369 21.1284H67.6847V25.1852H49.8665ZM91.4915 8.60563C91.4006 7.68897 91.0104 6.97685 90.321 6.46927C89.6316 5.96169 88.696 5.70791 87.5142 5.70791C86.7112 5.70791 86.0331 5.82154 85.4801 6.04882C84.9271 6.26851 84.5028 6.57533 84.2074 6.96927C83.9195 7.36321 83.7756 7.81018 83.7756 8.31018C83.7604 8.72685 83.8475 9.09048 84.0369 9.40109C84.2339 9.7117 84.5028 9.98064 84.8438 10.2079C85.1847 10.4276 85.5786 10.6208 86.0256 10.7875C86.4725 10.9465 86.9498 11.0829 87.4574 11.1965L89.5483 11.6965C90.5634 11.9238 91.4953 12.2268 92.3438 12.6056C93.1922 12.9844 93.9271 13.4503 94.5483 14.0034C95.1695 14.5564 95.6506 15.2079 95.9915 15.9579C96.34 16.7079 96.518 17.5678 96.5256 18.5375C96.518 19.9617 96.1544 21.1965 95.4347 22.242C94.7225 23.2799 93.6922 24.0867 92.3438 24.6625C91.0028 25.2306 89.3854 25.5147 87.4915 25.5147C85.6127 25.5147 83.9763 25.2268 82.5824 24.6511C81.196 24.0753 80.1127 23.2231 79.3324 22.0943C78.5597 20.9579 78.1544 19.5526 78.1165 17.8784H82.8778C82.9309 18.6587 83.1544 19.3102 83.5483 19.8329C83.9498 20.3481 84.4839 20.7382 85.1506 21.0034C85.8248 21.2609 86.5862 21.3897 87.4347 21.3897C88.268 21.3897 88.9915 21.2685 89.6051 21.0261C90.2263 20.7837 90.7074 20.4465 91.0483 20.0147C91.3892 19.5829 91.5597 19.0867 91.5597 18.5261C91.5597 18.0034 91.4044 17.564 91.0938 17.2079C90.7907 16.8518 90.3438 16.5488 89.7528 16.2988C89.1695 16.0488 88.4536 15.8215 87.6051 15.617L85.071 14.9806C83.1089 14.5034 81.5597 13.7572 80.4233 12.742C79.2869 11.7268 78.7225 10.3594 78.7301 8.63972C78.7225 7.23063 79.0975 5.99957 79.8551 4.94654C80.6203 3.89351 81.6695 3.07154 83.0028 2.48063C84.3362 1.88973 85.8513 1.59427 87.5483 1.59427C89.2756 1.59427 90.7831 1.88973 92.071 2.48063C93.3665 3.07154 94.3741 3.89351 95.0938 4.94654C95.8134 5.99957 96.1847 7.21927 96.2074 8.60563H91.4915ZM104.585 15.0943V25.1852H99.7443V1.91245H104.449V10.8102H104.653C105.047 9.77988 105.684 8.97306 106.562 8.38972C107.441 7.79882 108.544 7.50336 109.869 7.50336C111.081 7.50336 112.138 7.76851 113.04 8.29882C113.949 8.82154 114.653 9.57533 115.153 10.5602C115.661 11.5375 115.911 12.7079 115.903 14.0715V25.1852H111.062V14.9352C111.07 13.8594 110.797 13.0223 110.244 12.4238C109.699 11.8253 108.934 11.5261 107.949 11.5261C107.29 11.5261 106.706 11.6662 106.199 11.9465C105.699 12.2268 105.305 12.6359 105.017 13.1738C104.737 13.7041 104.593 14.3443 104.585 15.0943ZM127.599 25.5261C125.834 25.5261 124.308 25.1511 123.02 24.4011C121.74 23.6435 120.751 22.5905 120.054 21.242C119.357 19.8859 119.009 18.314 119.009 16.5261C119.009 14.7231 119.357 13.1473 120.054 11.7988C120.751 10.4428 121.74 9.38973 123.02 8.63972C124.308 7.88215 125.834 7.50336 127.599 7.50336C129.365 7.50336 130.887 7.88215 132.168 8.63972C133.455 9.38973 134.448 10.4428 135.145 11.7988C135.842 13.1473 136.19 14.7231 136.19 16.5261C136.19 18.314 135.842 19.8859 135.145 21.242C134.448 22.5905 133.455 23.6435 132.168 24.4011C130.887 25.1511 129.365 25.5261 127.599 25.5261ZM127.622 21.7761C128.425 21.7761 129.096 21.5488 129.634 21.0943C130.171 20.6322 130.577 20.0034 130.849 19.2079C131.13 18.4125 131.27 17.5072 131.27 16.492C131.27 15.4768 131.13 14.5715 130.849 13.7761C130.577 12.9806 130.171 12.3518 129.634 11.8897C129.096 11.4276 128.425 11.1965 127.622 11.1965C126.812 11.1965 126.13 11.4276 125.577 11.8897C125.031 12.3518 124.618 12.9806 124.338 13.7761C124.065 14.5715 123.929 15.4768 123.929 16.492C123.929 17.5072 124.065 18.4125 124.338 19.2079C124.618 20.0034 125.031 20.6322 125.577 21.0943C126.13 21.5488 126.812 21.7761 127.622 21.7761ZM139.338 31.7306V7.73063H144.111V10.6625H144.327C144.539 10.1928 144.846 9.71548 145.247 9.23063C145.656 8.73821 146.187 8.32912 146.838 8.00336C147.497 7.67003 148.315 7.50336 149.293 7.50336C150.565 7.50336 151.74 7.8367 152.815 8.50336C153.891 9.16245 154.751 10.1587 155.395 11.492C156.039 12.8178 156.361 14.4806 156.361 16.4806C156.361 18.4276 156.046 20.0715 155.418 21.4125C154.796 22.7458 153.948 23.7572 152.872 24.4465C151.804 25.1284 150.607 25.4693 149.281 25.4693C148.342 25.4693 147.543 25.314 146.884 25.0034C146.232 24.6928 145.698 24.3026 145.281 23.8329C144.865 23.3556 144.546 22.8746 144.327 22.3897H144.179V31.7306H139.338ZM144.077 16.4579C144.077 17.4958 144.221 18.4011 144.509 19.1738C144.796 19.9465 145.213 20.5488 145.759 20.9806C146.304 21.4049 146.967 21.617 147.747 21.617C148.535 21.617 149.202 21.4011 149.747 20.9693C150.293 20.5299 150.705 19.9238 150.986 19.1511C151.274 18.3708 151.418 17.4731 151.418 16.4579C151.418 15.4503 151.277 14.564 150.997 13.7988C150.717 13.0337 150.304 12.4352 149.759 12.0034C149.213 11.5715 148.543 11.3556 147.747 11.3556C146.959 11.3556 146.293 11.564 145.747 11.9806C145.209 12.3973 144.796 12.9882 144.509 13.7534C144.221 14.5185 144.077 15.42 144.077 16.4579ZM159.588 31.7306V7.73063H164.361V10.6625H164.577C164.789 10.1928 165.096 9.71548 165.497 9.23063C165.906 8.73821 166.437 8.32912 167.088 8.00336C167.747 7.67003 168.565 7.50336 169.543 7.50336C170.815 7.50336 171.99 7.8367 173.065 8.50336C174.141 9.16245 175.001 10.1587 175.645 11.492C176.289 12.8178 176.611 14.4806 176.611 16.4806C176.611 18.4276 176.296 20.0715 175.668 21.4125C175.046 22.7458 174.198 23.7572 173.122 24.4465C172.054 25.1284 170.857 25.4693 169.531 25.4693C168.592 25.4693 167.793 25.314 167.134 25.0034C166.482 24.6928 165.948 24.3026 165.531 23.8329C165.115 23.3556 164.796 22.8746 164.577 22.3897H164.429V31.7306H159.588ZM164.327 16.4579C164.327 17.4958 164.471 18.4011 164.759 19.1738C165.046 19.9465 165.463 20.5488 166.009 20.9806C166.554 21.4049 167.217 21.617 167.997 21.617C168.785 21.617 169.452 21.4011 169.997 20.9693C170.543 20.5299 170.955 19.9238 171.236 19.1511C171.524 18.3708 171.668 17.4731 171.668 16.4579C171.668 15.4503 171.527 14.564 171.247 13.7988C170.967 13.0337 170.554 12.4352 170.009 12.0034C169.463 11.5715 168.793 11.3556 167.997 11.3556C167.209 11.3556 166.543 11.564 165.997 11.9806C165.459 12.3973 165.046 12.9882 164.759 13.7534C164.471 14.5185 164.327 15.42 164.327 16.4579ZM179.838 25.1852V7.73063H184.679V25.1852H179.838ZM182.27 5.48063C181.55 5.48063 180.933 5.242 180.418 4.76472C179.91 4.27988 179.656 3.70033 179.656 3.02609C179.656 2.35942 179.91 1.78745 180.418 1.31018C180.933 0.825331 181.55 0.582907 182.27 0.582907C182.99 0.582907 183.603 0.825331 184.111 1.31018C184.626 1.78745 184.884 2.35942 184.884 3.02609C184.884 3.70033 184.626 4.27988 184.111 4.76472C183.603 5.242 182.99 5.48063 182.27 5.48063ZM193.398 15.0943V25.1852H188.557V7.73063H193.17V10.8102H193.375C193.761 9.79503 194.409 8.992 195.318 8.40109C196.227 7.8026 197.33 7.50336 198.625 7.50336C199.837 7.50336 200.894 7.76851 201.795 8.29882C202.697 8.82912 203.398 9.5867 203.898 10.5715C204.398 11.5488 204.648 12.7155 204.648 14.0715V25.1852H199.807V14.9352C199.814 13.867 199.542 13.0337 198.989 12.4352C198.436 11.8291 197.674 11.5261 196.705 11.5261C196.053 11.5261 195.477 11.6662 194.977 11.9465C194.485 12.2268 194.098 12.6359 193.818 13.1738C193.545 13.7041 193.405 14.3443 193.398 15.0943ZM216.327 32.0943C214.759 32.0943 213.414 31.8784 212.293 31.4465C211.179 31.0223 210.293 30.4428 209.634 29.7079C208.974 28.9731 208.546 28.1473 208.349 27.2306L212.827 26.6284C212.963 26.9768 213.179 27.3026 213.474 27.6056C213.77 27.9087 214.16 28.1511 214.645 28.3329C215.137 28.5223 215.736 28.617 216.44 28.617C217.493 28.617 218.361 28.3594 219.043 27.8443C219.732 27.3367 220.077 26.4844 220.077 25.2875V22.0943H219.872C219.66 22.5791 219.342 23.0375 218.918 23.4693C218.493 23.9011 217.948 24.2534 217.281 24.5261C216.615 24.7988 215.819 24.9352 214.895 24.9352C213.584 24.9352 212.391 24.6322 211.315 24.0261C210.247 23.4125 209.395 22.4768 208.759 21.2193C208.13 19.9541 207.815 18.3556 207.815 16.4238C207.815 14.4465 208.137 12.795 208.781 11.4693C209.425 10.1435 210.281 9.15109 211.349 8.492C212.425 7.83291 213.603 7.50336 214.884 7.50336C215.861 7.50336 216.679 7.67003 217.338 8.00336C217.997 8.32912 218.527 8.73821 218.929 9.23063C219.338 9.71548 219.652 10.1928 219.872 10.6625H220.054V7.73063H224.861V25.3556C224.861 26.8405 224.497 28.0829 223.77 29.0829C223.043 30.0829 222.035 30.8329 220.747 31.3329C219.467 31.8405 217.993 32.0943 216.327 32.0943ZM216.429 21.2988C217.209 21.2988 217.868 21.1056 218.406 20.7193C218.952 20.3253 219.368 19.7647 219.656 19.0375C219.952 18.3026 220.099 17.4238 220.099 16.4011C220.099 15.3784 219.955 14.492 219.668 13.742C219.38 12.9844 218.963 12.3973 218.418 11.9806C217.872 11.564 217.209 11.3556 216.429 11.3556C215.634 11.3556 214.963 11.5715 214.418 12.0034C213.872 12.4276 213.459 13.0185 213.179 13.7761C212.899 14.5337 212.759 15.4087 212.759 16.4011C212.759 17.4087 212.899 18.2799 213.179 19.0147C213.467 19.742 213.88 20.3064 214.418 20.7079C214.963 21.1018 215.634 21.2988 216.429 21.2988Z" fill="black"/>
</svg>
